<svg width="15" height="17" viewBox="0 0 15 17" fill="none" xmlns="http://www.w3.org/2000/svg">
<path d="M8.85089 1.55566C8.40551 1.55566 7.98758 1.7816 7.71951 2.10741C7.45144 2.43323 7.30368 2.8304 7.19603 3.24897C7.02506 3.92201 6.97229 4.66877 6.95963 5.34181C5.70793 5.42505 4.57444 5.79606 3.63303 6.36921C3.25098 6.04815 2.79083 5.86978 2.34968 5.87454C1.84731 5.87929 1.37028 6.09571 1.01566 6.54044C0.338103 7.38947 0.416202 8.77836 1.20141 9.60361C1.15286 9.85808 1.11698 10.1197 1.11698 10.3837C1.11698 13.1805 3.97498 15.4446 7.49999 15.4446C11.025 15.4446 13.883 13.1781 13.883 10.3837C13.883 10.1197 13.8471 9.85808 13.7986 9.60361C14.5838 8.77836 14.6619 7.38947 13.9843 6.54044C13.6297 6.09571 13.1527 5.87929 12.6503 5.87454C12.2091 5.86978 11.749 6.04815 11.3669 6.36921C10.4298 5.79843 9.3026 5.42743 8.05723 5.34181C8.07412 4.72109 8.11845 4.07659 8.24298 3.59143C8.32108 3.28702 8.41396 3.06584 8.51316 2.94455C8.61237 2.82326 8.68414 2.77332 8.85089 2.77332C9.21183 2.77332 9.25827 2.88985 9.47568 3.17286C9.58544 3.31556 9.71209 3.49393 9.91472 3.66754C10.1174 3.84115 10.4171 3.99098 10.7421 3.99098V2.77332C10.6514 2.77332 10.6345 2.77094 10.5733 2.71624C10.5121 2.66154 10.4276 2.5355 10.3031 2.37378C10.054 2.04796 9.57066 1.55566 8.85089 1.55566ZM12.3632 1.66982C11.5231 1.66982 10.8435 2.43561 10.8435 3.38215C10.8435 4.32869 11.5231 5.09448 12.3632 5.09448C13.2033 5.09448 13.883 4.32869 13.883 3.38215C13.883 2.43561 13.2033 1.66982 12.3632 1.66982ZM12.3632 2.27865C12.9036 2.27865 13.3426 2.77332 13.3426 3.38215C13.3426 3.99098 12.9036 4.48565 12.3632 4.48565C11.8229 4.48565 11.3838 3.99098 11.3838 3.38215C11.3838 2.77332 11.8229 2.27865 12.3632 2.27865ZM7.49999 6.29311C10.491 6.29311 13.0218 8.16953 13.0218 10.3837C13.0218 12.6002 10.491 14.4742 7.49999 14.4742C4.50901 14.4742 1.97818 12.6002 1.97818 10.3837C1.97818 8.16953 4.50901 6.29311 7.49999 6.29311ZM2.36656 6.84486C2.51643 6.84724 2.67263 6.88529 2.82249 6.95901C2.28002 7.42277 1.84942 7.95549 1.55602 8.55719C1.35339 8.0863 1.40827 7.49887 1.65734 7.18732C1.83887 6.95901 2.09005 6.84248 2.36656 6.84486ZM12.6334 6.84486C12.9099 6.84248 13.1611 6.95901 13.3426 7.18732C13.5917 7.49887 13.6466 8.0863 13.4439 8.55719C13.1506 7.95549 12.72 7.42277 12.1775 6.95901C12.3273 6.88529 12.4835 6.84724 12.6334 6.84486ZM5.33855 8.36693C4.79819 8.36693 4.35914 8.8616 4.35914 9.47043C4.35914 10.0793 4.79819 10.5739 5.33855 10.5739C5.87891 10.5739 6.31795 10.0793 6.31795 9.47043C6.31795 8.8616 5.87891 8.36693 5.33855 8.36693ZM9.66143 8.36693C9.12107 8.36693 8.68202 8.8616 8.68202 9.47043C8.68202 10.0793 9.12107 10.5739 9.66143 10.5739C10.2018 10.5739 10.6408 10.0793 10.6408 9.47043C10.6408 8.8616 10.2018 8.36693 9.66143 8.36693ZM4.81507 12.115C5.15913 12.9165 6.22296 13.6942 7.49999 13.6942C8.77701 13.6942 9.85773 12.9165 10.2018 12.115C9.577 12.5693 8.59126 12.8761 7.49999 12.8761C6.40871 12.8761 5.43986 12.5693 4.81507 12.115Z" fill="#030A1A"/>
</svg>
