<svg width="15" height="17" viewBox="0 0 15 17" fill="none" xmlns="http://www.w3.org/2000/svg">
<path d="M7.68034 2.88879C8.57883 2.88879 9.30954 3.64309 9.30954 4.57061C9.30954 5.49533 8.57883 6.24963 7.68034 6.24963C6.78184 6.24963 6.05114 5.49533 6.05114 4.57061C6.05114 3.64309 6.78184 2.88879 7.68034 2.88879ZM7.68034 8.62987C9.8508 8.62987 11.6153 6.80837 11.6153 4.57061C11.6153 2.33005 9.8508 0.508545 7.68034 0.508545C5.50988 0.508545 3.74807 2.33005 3.74807 4.57061C3.74807 6.80837 5.50988 8.62987 7.68034 8.62987ZM9.27165 11.9432C10.0727 11.7532 10.844 11.4264 11.5558 10.9654C12.0943 10.6162 12.2567 9.88146 11.9184 9.32551C11.5774 8.76676 10.8684 8.59914 10.3271 8.95115C8.71685 9.996 6.64382 9.996 5.03086 8.95115C4.49231 8.59914 3.78055 8.76676 3.44226 9.32551C3.10397 9.88146 3.26635 10.6162 3.80491 10.9654C4.51667 11.4264 5.28796 11.7532 6.08903 11.9432L3.8888 14.2117C3.43956 14.6755 3.43956 15.4298 3.8888 15.8935C4.11613 16.1254 4.40841 16.2427 4.7034 16.2427C4.99839 16.2427 5.29338 16.1254 5.52071 15.8935L7.68034 13.6641L9.84268 15.8935C10.2919 16.3601 11.0199 16.3601 11.4719 15.8935C11.9211 15.4298 11.9211 14.6755 11.4719 14.2117L9.27165 11.9432Z" fill="#030A1A"/>
</svg>
