<svg width="15" height="17" viewBox="0 0 15 17" fill="none" xmlns="http://www.w3.org/2000/svg">
<path d="M8.72274 11.0518C9.16542 10.9087 9.73219 11.9964 10.3355 12.4127C10.7884 12.728 11.1352 12.6599 11.1352 12.6599L12.7434 12.6368C12.7434 12.6368 13.5839 12.5849 13.1866 11.9172C13.1537 11.8616 12.9536 11.4222 11.9896 10.5179C10.9815 9.57185 11.1181 9.72512 12.3318 8.08962C13.0713 7.09267 13.3671 6.48376 13.2745 6.22445C13.1856 5.97486 12.6425 6.03969 12.6425 6.03969L10.8305 6.05219C10.6541 6.05265 10.5046 6.10729 10.4365 6.29066C10.4351 6.29252 10.1489 7.06211 9.76738 7.7164C8.96121 9.10046 8.63939 9.17408 8.50603 9.08749C8.19995 8.88699 8.27728 8.28317 8.27728 7.85392C8.27728 6.51246 8.47732 5.9531 7.88554 5.80863C7.68782 5.76047 7.54335 5.72898 7.03908 5.72435C6.39452 5.71463 5.84719 5.72435 5.53695 5.8767C5.33089 5.97996 5.17299 6.20639 5.26884 6.21935C5.38923 6.23556 5.65919 6.29344 5.80366 6.4907C5.98935 6.74631 5.98379 7.3191 5.98379 7.3191C5.98379 7.3191 6.08983 8.89857 5.73374 9.09444C5.48925 9.22872 5.15493 8.9546 4.43581 7.69788C4.06861 7.05516 3.79124 6.34484 3.79124 6.34484C3.79124 6.34484 3.73753 6.21287 3.64029 6.14063C3.52452 6.05497 3.36246 6.02765 3.36246 6.02765L1.64268 6.03876C1.64268 6.03876 1.3843 6.04617 1.28938 6.16008C1.2051 6.26103 1.28243 6.4694 1.28243 6.4694C1.28243 6.4694 2.62945 9.65566 4.15474 11.2606C5.55315 12.734 7.14234 12.6363 7.14234 12.6363H7.86239C7.86239 12.6363 8.07956 12.6113 8.19069 12.4918C8.29442 12.3807 8.28979 12.1719 8.28979 12.1719C8.28979 12.1719 8.27543 11.1953 8.72274 11.0518Z" fill="#030A1A"/>
</svg>
