<svg xmlns="http://www.w3.org/2000/svg" xmlns:xlink="http://www.w3.org/1999/xlink"><defs>
<linearGradient id="paint0_linear_1_155" x1="19.774" y1="3.00672e-05" x2="105.785" y2="10.6444" gradientUnits="userSpaceOnUse">
<stop stop-color="#ED0233"/>
<stop offset="1" stop-color="#003EB7"/>
</linearGradient>
<linearGradient id="paint1_linear_1_155" x1="14" y1="49.52" x2="54.1858" y2="9.18415" gradientUnits="userSpaceOnUse">
<stop stop-color="#003D85"/>
<stop offset="0.885417" stop-color="#B80027"/>
</linearGradient>
</defs><symbol id="carousel-arrow" viewBox="0 0 18 34">
<path d="M1 1L17 17L1 33" stroke="#AFAFAF"/>
</symbol><symbol id="icon-close" viewBox="0 0 20 20"><path d="M.293 18.291a1 1 0 101.414 1.414L10 11.413l8.292 8.292a1 1 0 101.414-1.414l-8.292-8.292 8.292-8.292A1 1 0 1018.291.293L9.999 8.585 1.707.293A1 1 0 10.293 1.707L8.585 10 .293 18.291z"/></symbol><symbol id="logo" viewBox="0 0 87 20">
<path d="M0.676 5.168C0.676 3.69467 1.03133 2.568 1.742 1.788C2.45267 0.990666 3.50133 0.592 4.888 0.592C6.27467 0.592 7.32333 0.990666 8.034 1.788C8.74467 2.568 9.1 3.69467 9.1 5.168V5.74H6.396V4.986C6.396 3.79 5.91933 3.192 4.966 3.192C4.01267 3.192 3.536 3.79 3.536 4.986C3.536 5.662 3.72667 6.30333 4.108 6.91C4.48933 7.49933 4.94867 8.03667 5.486 8.522C6.04067 9.00733 6.59533 9.51867 7.15 10.056C7.70467 10.576 8.17267 11.2347 8.554 12.032C8.93533 12.812 9.126 13.6787 9.126 14.632C9.126 16.1053 8.762 17.2407 8.034 18.038C7.306 18.818 6.24867 19.208 4.862 19.208C3.47533 19.208 2.418 18.818 1.69 18.038C0.962 17.2407 0.598 16.1053 0.598 14.632V13.514H3.302V14.814C3.302 15.9927 3.796 16.582 4.784 16.582C5.772 16.582 6.266 15.9927 6.266 14.814C6.266 14.138 6.07533 13.5053 5.694 12.916C5.31267 12.3093 4.84467 11.7633 4.29 11.278C3.75267 10.7927 3.20667 10.29 2.652 9.77C2.09733 9.23267 1.62933 8.574 1.248 7.794C0.866667 6.99667 0.676 6.12133 0.676 5.168ZM11.1546 0.799999H14.0146V14.84C14.0146 16.0187 14.5086 16.608 15.4966 16.608C16.4846 16.608 16.9786 16.0187 16.9786 14.84V0.799999H19.6826V14.658C19.6826 16.1313 19.3186 17.2667 18.5906 18.064C17.8626 18.844 16.8053 19.234 15.4186 19.234C14.0319 19.234 12.9746 18.844 12.2466 18.064C11.5186 17.2667 11.1546 16.1313 11.1546 14.658V0.799999ZM26.376 0.799999C29.2187 0.799999 30.64 2.29933 30.64 5.298V7.664C30.64 10.6627 29.2187 12.162 26.376 12.162H25.024V19H22.164V0.799999H26.376ZM26.376 3.4H25.024V9.562H26.376C26.844 9.562 27.1907 9.432 27.416 9.172C27.6587 8.912 27.78 8.47 27.78 7.846V5.116C27.78 4.492 27.6587 4.05 27.416 3.79C27.1907 3.53 26.844 3.4 26.376 3.4ZM35.3448 3.4V8.47H39.2708V11.07H35.3448V16.4H40.2848V19H32.4848V0.799999H40.2848V3.4H35.3448ZM51.469 19H48.557C48.3837 18.48 48.297 17.7347 48.297 16.764V13.904C48.297 13.072 48.1497 12.4827 47.855 12.136C47.5604 11.772 47.0837 11.59 46.425 11.59H45.437V19H42.577V0.799999H46.893C48.3664 0.799999 49.441 1.14667 50.117 1.84C50.793 2.516 51.131 3.56467 51.131 4.986V6.416C51.131 8.288 50.507 9.51867 49.259 10.108C50.5244 10.6453 51.157 11.9367 51.157 13.982V16.79C51.157 17.778 51.261 18.5147 51.469 19ZM46.815 3.4H45.437V8.99H46.555C47.127 8.99 47.5517 8.84267 47.829 8.548C48.1237 8.25333 48.271 7.75933 48.271 7.066V5.272C48.271 4.024 47.7857 3.4 46.815 3.4ZM57.848 11.46V8.86H61.852V14.632C61.852 16.1053 61.488 17.2407 60.76 18.038C60.032 18.818 58.9746 19.208 57.588 19.208C56.2013 19.208 55.144 18.818 54.416 18.038C53.688 17.2407 53.324 16.1053 53.324 14.632V5.168C53.324 3.69467 53.688 2.568 54.416 1.788C55.144 0.990666 56.2013 0.592 57.588 0.592C58.9746 0.592 60.032 0.990666 60.76 1.788C61.488 2.568 61.852 3.69467 61.852 5.168V6.936H59.148V4.986C59.148 3.79 58.654 3.192 57.666 3.192C56.678 3.192 56.184 3.79 56.184 4.986V14.814C56.184 15.9927 56.678 16.582 57.666 16.582C58.654 16.582 59.148 15.9927 59.148 14.814V11.46H57.848ZM66.506 19V12.968L62.892 0.799999H65.882L68.066 9.094L70.25 0.799999H72.98L69.366 12.968V19H66.506ZM78.6086 0.799999L80.7146 13.722L82.6646 0.799999H86.6426V19H83.9386V5.948L81.9626 19H79.2586L77.1266 6.13V19H74.6306V0.799999H78.6086Z" fill="white"/>
</symbol><symbol id="ok-logo" viewBox="0 0 15 17">
<path d="M7.68034 2.88879C8.57883 2.88879 9.30954 3.64309 9.30954 4.57061C9.30954 5.49533 8.57883 6.24963 7.68034 6.24963C6.78184 6.24963 6.05114 5.49533 6.05114 4.57061C6.05114 3.64309 6.78184 2.88879 7.68034 2.88879ZM7.68034 8.62987C9.8508 8.62987 11.6153 6.80837 11.6153 4.57061C11.6153 2.33005 9.8508 0.508545 7.68034 0.508545C5.50988 0.508545 3.74807 2.33005 3.74807 4.57061C3.74807 6.80837 5.50988 8.62987 7.68034 8.62987ZM9.27165 11.9432C10.0727 11.7532 10.844 11.4264 11.5558 10.9654C12.0943 10.6162 12.2567 9.88146 11.9184 9.32551C11.5774 8.76676 10.8684 8.59914 10.3271 8.95115C8.71685 9.996 6.64382 9.996 5.03086 8.95115C4.49231 8.59914 3.78055 8.76676 3.44226 9.32551C3.10397 9.88146 3.26635 10.6162 3.80491 10.9654C4.51667 11.4264 5.28796 11.7532 6.08903 11.9432L3.8888 14.2117C3.43956 14.6755 3.43956 15.4298 3.8888 15.8935C4.11613 16.1254 4.40841 16.2427 4.7034 16.2427C4.99839 16.2427 5.29338 16.1254 5.52071 15.8935L7.68034 13.6641L9.84268 15.8935C10.2919 16.3601 11.0199 16.3601 11.4719 15.8935C11.9211 15.4298 11.9211 14.6755 11.4719 14.2117L9.27165 11.9432Z" fill="#030A1A"/>
</symbol><symbol id="reddit-logo" viewBox="0 0 15 17">
<path d="M8.85089 1.55566C8.40551 1.55566 7.98758 1.7816 7.71951 2.10741C7.45144 2.43323 7.30368 2.8304 7.19603 3.24897C7.02506 3.92201 6.97229 4.66877 6.95963 5.34181C5.70793 5.42505 4.57444 5.79606 3.63303 6.36921C3.25098 6.04815 2.79083 5.86978 2.34968 5.87454C1.84731 5.87929 1.37028 6.09571 1.01566 6.54044C0.338103 7.38947 0.416202 8.77836 1.20141 9.60361C1.15286 9.85808 1.11698 10.1197 1.11698 10.3837C1.11698 13.1805 3.97498 15.4446 7.49999 15.4446C11.025 15.4446 13.883 13.1781 13.883 10.3837C13.883 10.1197 13.8471 9.85808 13.7986 9.60361C14.5838 8.77836 14.6619 7.38947 13.9843 6.54044C13.6297 6.09571 13.1527 5.87929 12.6503 5.87454C12.2091 5.86978 11.749 6.04815 11.3669 6.36921C10.4298 5.79843 9.3026 5.42743 8.05723 5.34181C8.07412 4.72109 8.11845 4.07659 8.24298 3.59143C8.32108 3.28702 8.41396 3.06584 8.51316 2.94455C8.61237 2.82326 8.68414 2.77332 8.85089 2.77332C9.21183 2.77332 9.25827 2.88985 9.47568 3.17286C9.58544 3.31556 9.71209 3.49393 9.91472 3.66754C10.1174 3.84115 10.4171 3.99098 10.7421 3.99098V2.77332C10.6514 2.77332 10.6345 2.77094 10.5733 2.71624C10.5121 2.66154 10.4276 2.5355 10.3031 2.37378C10.054 2.04796 9.57066 1.55566 8.85089 1.55566ZM12.3632 1.66982C11.5231 1.66982 10.8435 2.43561 10.8435 3.38215C10.8435 4.32869 11.5231 5.09448 12.3632 5.09448C13.2033 5.09448 13.883 4.32869 13.883 3.38215C13.883 2.43561 13.2033 1.66982 12.3632 1.66982ZM12.3632 2.27865C12.9036 2.27865 13.3426 2.77332 13.3426 3.38215C13.3426 3.99098 12.9036 4.48565 12.3632 4.48565C11.8229 4.48565 11.3838 3.99098 11.3838 3.38215C11.3838 2.77332 11.8229 2.27865 12.3632 2.27865ZM7.49999 6.29311C10.491 6.29311 13.0218 8.16953 13.0218 10.3837C13.0218 12.6002 10.491 14.4742 7.49999 14.4742C4.50901 14.4742 1.97818 12.6002 1.97818 10.3837C1.97818 8.16953 4.50901 6.29311 7.49999 6.29311ZM2.36656 6.84486C2.51643 6.84724 2.67263 6.88529 2.82249 6.95901C2.28002 7.42277 1.84942 7.95549 1.55602 8.55719C1.35339 8.0863 1.40827 7.49887 1.65734 7.18732C1.83887 6.95901 2.09005 6.84248 2.36656 6.84486ZM12.6334 6.84486C12.9099 6.84248 13.1611 6.95901 13.3426 7.18732C13.5917 7.49887 13.6466 8.0863 13.4439 8.55719C13.1506 7.95549 12.72 7.42277 12.1775 6.95901C12.3273 6.88529 12.4835 6.84724 12.6334 6.84486ZM5.33855 8.36693C4.79819 8.36693 4.35914 8.8616 4.35914 9.47043C4.35914 10.0793 4.79819 10.5739 5.33855 10.5739C5.87891 10.5739 6.31795 10.0793 6.31795 9.47043C6.31795 8.8616 5.87891 8.36693 5.33855 8.36693ZM9.66143 8.36693C9.12107 8.36693 8.68202 8.8616 8.68202 9.47043C8.68202 10.0793 9.12107 10.5739 9.66143 10.5739C10.2018 10.5739 10.6408 10.0793 10.6408 9.47043C10.6408 8.8616 10.2018 8.36693 9.66143 8.36693ZM4.81507 12.115C5.15913 12.9165 6.22296 13.6942 7.49999 13.6942C8.77701 13.6942 9.85773 12.9165 10.2018 12.115C9.577 12.5693 8.59126 12.8761 7.49999 12.8761C6.40871 12.8761 5.43986 12.5693 4.81507 12.115Z" fill="#030A1A"/>
</symbol><symbol id="rouble" viewBox="0 0 30 42">
<path fill-rule="evenodd" clip-rule="evenodd" d="M18.5 6H10V17H18.5C21.5376 17 24 14.5376 24 11.5C24 8.46243 21.5376 6 18.5 6ZM4 0V23H18.5C24.8513 23 30 17.8513 30 11.5C30 5.14873 24.8513 0 18.5 0H4Z" fill="#102654"/>
<path fill-rule="evenodd" clip-rule="evenodd" d="M0 17H6V23H0V17Z" fill="#102654"/>
<path fill-rule="evenodd" clip-rule="evenodd" d="M3.65854 28.3214V18H9.65854V28.3214H21V34.3214H9.65854V42H3.65854V34.3214H0V28.3214H3.65854Z" fill="#102654"/>
</symbol><symbol id="video-button-img" viewBox="0 0 100 100">
<circle cx="50" cy="50" r="49" stroke="url(#paint0_linear_1_155)" stroke-opacity="0.2" stroke-width="2"/>
<circle cx="50" cy="50" r="36" fill="url(#paint1_linear_1_155)"/>
<path d="M59 49.5L46.25 56.8612L46.25 42.1388L59 49.5Z" fill="white"/>

</symbol><symbol id="vk-logo" viewBox="0 0 15 17">
<path d="M8.72274 11.0518C9.16542 10.9087 9.73219 11.9964 10.3355 12.4127C10.7884 12.728 11.1352 12.6599 11.1352 12.6599L12.7434 12.6368C12.7434 12.6368 13.5839 12.5849 13.1866 11.9172C13.1537 11.8616 12.9536 11.4222 11.9896 10.5179C10.9815 9.57185 11.1181 9.72512 12.3318 8.08962C13.0713 7.09267 13.3671 6.48376 13.2745 6.22445C13.1856 5.97486 12.6425 6.03969 12.6425 6.03969L10.8305 6.05219C10.6541 6.05265 10.5046 6.10729 10.4365 6.29066C10.4351 6.29252 10.1489 7.06211 9.76738 7.7164C8.96121 9.10046 8.63939 9.17408 8.50603 9.08749C8.19995 8.88699 8.27728 8.28317 8.27728 7.85392C8.27728 6.51246 8.47732 5.9531 7.88554 5.80863C7.68782 5.76047 7.54335 5.72898 7.03908 5.72435C6.39452 5.71463 5.84719 5.72435 5.53695 5.8767C5.33089 5.97996 5.17299 6.20639 5.26884 6.21935C5.38923 6.23556 5.65919 6.29344 5.80366 6.4907C5.98935 6.74631 5.98379 7.3191 5.98379 7.3191C5.98379 7.3191 6.08983 8.89857 5.73374 9.09444C5.48925 9.22872 5.15493 8.9546 4.43581 7.69788C4.06861 7.05516 3.79124 6.34484 3.79124 6.34484C3.79124 6.34484 3.73753 6.21287 3.64029 6.14063C3.52452 6.05497 3.36246 6.02765 3.36246 6.02765L1.64268 6.03876C1.64268 6.03876 1.3843 6.04617 1.28938 6.16008C1.2051 6.26103 1.28243 6.4694 1.28243 6.4694C1.28243 6.4694 2.62945 9.65566 4.15474 11.2606C5.55315 12.734 7.14234 12.6363 7.14234 12.6363H7.86239C7.86239 12.6363 8.07956 12.6113 8.19069 12.4918C8.29442 12.3807 8.28979 12.1719 8.28979 12.1719C8.28979 12.1719 8.27543 11.1953 8.72274 11.0518Z" fill="#030A1A"/>
</symbol></svg>